<svg xmlns="http://www.w3.org/2000/svg" xmlns:xlink="http://www.w3.org/1999/xlink" version="1.1" class="marks" width="515" height="582" viewBox="0 0 515 582"><rect width="515" height="582" fill="white"/><g fill="none" stroke-miterlimit="10" transform="translate(100,5)"><g class="mark-group role-frame root" role="graphics-object" aria-roledescription="group mark container"><g transform="translate(0,0)"><path class="background" aria-hidden="true" d="M0.5,0.5h400v540h-400Z"/><g><g class="mark-group role-axis" role="graphics-symbol" aria-roledescription="axis" aria-label="X-axis for a linear scale with values from 0 to 8"><g transform="translate(0.5,540.5)"><path class="background" aria-hidden="true" d="M0,0h0v0h0Z" pointer-events="none"/><g><g class="mark-rule role-axis-grid" pointer-events="none"><line transform="translate(0,0)" x2="0" y2="-540" stroke="#ddd" stroke-width="1" opacity="1"/><line transform="translate(50,0)" x2="0" y2="-540" stroke="#ddd" stroke-width="1" opacity="1"/><line transform="translate(100,0)" x2="0" y2="-540" stroke="#ddd" stroke-width="1" opacity="1"/><line transform="translate(150,0)" x2="0" y2="-540" stroke="#ddd" stroke-width="1" opacity="1"/><line transform="translate(200,0)" x2="0" y2="-540" stroke="#ddd" stroke-width="1" opacity="1"/><line transform="translate(250,0)" x2="0" y2="-540" stroke="#ddd" stroke-width="1" opacity="1"/><line transform="translate(300,0)" x2="0" y2="-540" stroke="#ddd" stroke-width="1" opacity="1"/><line transform="translate(350,0)" x2="0" y2="-540" stroke="#ddd" stroke-width="1" opacity="1"/><line transform="translate(400,0)" x2="0" y2="-540" stroke="#ddd" stroke-width="1" opacity="1"/></g></g><path class="foreground" aria-hidden="true" d="" pointer-events="none" display="none"/></g></g><g class="mark-group role-axis" role="graphics-symbol" aria-roledescription="axis" aria-label="X-axis titled 'Datensätze' for a linear scale with values from 0 to 8"><g transform="translate(0.5,540.5)"><path class="background" aria-hidden="true" d="M0,0h0v0h0Z" pointer-events="none"/><g><g class="mark-rule role-axis-tick" pointer-events="none"><line transform="translate(0,0)" x2="0" y2="5" stroke="#888" stroke-width="1" opacity="1"/><line transform="translate(50,0)" x2="0" y2="5" stroke="#888" stroke-width="1" opacity="1"/><line transform="translate(100,0)" x2="0" y2="5" stroke="#888" stroke-width="1" opacity="1"/><line transform="translate(150,0)" x2="0" y2="5" stroke="#888" stroke-width="1" opacity="1"/><line transform="translate(200,0)" x2="0" y2="5" stroke="#888" stroke-width="1" opacity="1"/><line transform="translate(250,0)" x2="0" y2="5" stroke="#888" stroke-width="1" opacity="1"/><line transform="translate(300,0)" x2="0" y2="5" stroke="#888" stroke-width="1" opacity="1"/><line transform="translate(350,0)" x2="0" y2="5" stroke="#888" stroke-width="1" opacity="1"/><line transform="translate(400,0)" x2="0" y2="5" stroke="#888" stroke-width="1" opacity="1"/></g><g class="mark-text role-axis-label" pointer-events="none"><text text-anchor="start" transform="translate(0,15)" font-family="sans-serif" font-size="10px" fill="#000" opacity="1">0</text><text text-anchor="middle" transform="translate(50,15)" font-family="sans-serif" font-size="10px" fill="#000" opacity="1">1</text><text text-anchor="middle" transform="translate(100,15)" font-family="sans-serif" font-size="10px" fill="#000" opacity="1">2</text><text text-anchor="middle" transform="translate(150,15)" font-family="sans-serif" font-size="10px" fill="#000" opacity="1">3</text><text text-anchor="middle" transform="translate(200,15)" font-family="sans-serif" font-size="10px" fill="#000" opacity="1">4</text><text text-anchor="middle" transform="translate(250,15)" font-family="sans-serif" font-size="10px" fill="#000" opacity="1">5</text><text text-anchor="middle" transform="translate(300,15)" font-family="sans-serif" font-size="10px" fill="#000" opacity="1">6</text><text text-anchor="middle" transform="translate(350,15)" font-family="sans-serif" font-size="10px" fill="#000" opacity="1">7</text><text text-anchor="end" transform="translate(400,15)" font-family="sans-serif" font-size="10px" fill="#000" opacity="1">8</text></g><g class="mark-text role-axis-title" pointer-events="none"><text text-anchor="middle" transform="translate(200,30)" font-family="sans-serif" font-size="11px" font-weight="bold" fill="#000" opacity="1">Datensätze</text></g></g><path class="foreground" aria-hidden="true" d="" pointer-events="none" display="none"/></g></g><g class="mark-group role-axis" role="graphics-symbol" aria-roledescription="axis" aria-label="Y-axis titled 'Auftraggeber' for a discrete scale with 27 values: Lane, Fishenden, Biermann, Galpern, Norkauer, ending with Wackernagel"><g transform="translate(0.5,0.5)"><path class="background" aria-hidden="true" d="M0,0h0v0h0Z" pointer-events="none"/><g><g class="mark-rule role-axis-tick" pointer-events="none"><line transform="translate(0,10)" x2="-5" y2="0" stroke="#888" stroke-width="1" opacity="1"/><line transform="translate(0,30)" x2="-5" y2="0" stroke="#888" stroke-width="1" opacity="1"/><line transform="translate(0,50)" x2="-5" y2="0" stroke="#888" stroke-width="1" opacity="1"/><line transform="translate(0,70)" x2="-5" y2="0" stroke="#888" stroke-width="1" opacity="1"/><line transform="translate(0,90)" x2="-5" y2="0" stroke="#888" stroke-width="1" opacity="1"/><line transform="translate(0,110)" x2="-5" y2="0" stroke="#888" stroke-width="1" opacity="1"/><line transform="translate(0,130)" x2="-5" y2="0" stroke="#888" stroke-width="1" opacity="1"/><line transform="translate(0,150)" x2="-5" y2="0" stroke="#888" stroke-width="1" opacity="1"/><line transform="translate(0,170)" x2="-5" y2="0" stroke="#888" stroke-width="1" opacity="1"/><line transform="translate(0,190)" x2="-5" y2="0" stroke="#888" stroke-width="1" opacity="1"/><line transform="translate(0,210)" x2="-5" y2="0" stroke="#888" stroke-width="1" opacity="1"/><line transform="translate(0,230)" x2="-5" y2="0" stroke="#888" stroke-width="1" opacity="1"/><line transform="translate(0,250)" x2="-5" y2="0" stroke="#888" stroke-width="1" opacity="1"/><line transform="translate(0,270)" x2="-5" y2="0" stroke="#888" stroke-width="1" opacity="1"/><line transform="translate(0,290)" x2="-5" y2="0" stroke="#888" stroke-width="1" opacity="1"/><line transform="translate(0,310)" x2="-5" y2="0" stroke="#888" stroke-width="1" opacity="1"/><line transform="translate(0,330)" x2="-5" y2="0" stroke="#888" stroke-width="1" opacity="1"/><line transform="translate(0,350)" x2="-5" y2="0" stroke="#888" stroke-width="1" opacity="1"/><line transform="translate(0,370)" x2="-5" y2="0" stroke="#888" stroke-width="1" opacity="1"/><line transform="translate(0,390)" x2="-5" y2="0" stroke="#888" stroke-width="1" opacity="1"/><line transform="translate(0,410)" x2="-5" y2="0" stroke="#888" stroke-width="1" opacity="1"/><line transform="translate(0,430)" x2="-5" y2="0" stroke="#888" stroke-width="1" opacity="1"/><line transform="translate(0,450)" x2="-5" y2="0" stroke="#888" stroke-width="1" opacity="1"/><line transform="translate(0,470)" x2="-5" y2="0" stroke="#888" stroke-width="1" opacity="1"/><line transform="translate(0,490)" x2="-5" y2="0" stroke="#888" stroke-width="1" opacity="1"/><line transform="translate(0,510)" x2="-5" y2="0" stroke="#888" stroke-width="1" opacity="1"/><line transform="translate(0,530)" x2="-5" y2="0" stroke="#888" stroke-width="1" opacity="1"/></g><g class="mark-text role-axis-label" pointer-events="none"><text text-anchor="end" transform="translate(-7,12.5)" font-family="sans-serif" font-size="10px" fill="#000" opacity="1">Lane</text><text text-anchor="end" transform="translate(-7,32.5)" font-family="sans-serif" font-size="10px" fill="#000" opacity="1">Fishenden</text><text text-anchor="end" transform="translate(-7,52.5)" font-family="sans-serif" font-size="10px" fill="#000" opacity="1">Biermann</text><text text-anchor="end" transform="translate(-7,72.5)" font-family="sans-serif" font-size="10px" fill="#000" opacity="1">Galpern</text><text text-anchor="end" transform="translate(-7,92.5)" font-family="sans-serif" font-size="10px" fill="#000" opacity="1">Norkauer</text><text text-anchor="end" transform="translate(-7,112.5)" font-family="sans-serif" font-size="10px" fill="#000" opacity="1">Herrmann</text><text text-anchor="end" transform="translate(-7,132.5)" font-family="sans-serif" font-size="10px" fill="#000" opacity="1">Lechner</text><text text-anchor="end" transform="translate(-7,152.5)" font-family="sans-serif" font-size="10px" fill="#000" opacity="1">Moyllus</text><text text-anchor="end" transform="translate(-7,172.5)" font-family="sans-serif" font-size="10px" fill="#000" opacity="1">Wasow</text><text text-anchor="end" transform="translate(-7,192.5)" font-family="sans-serif" font-size="10px" fill="#000" opacity="1">Wieynck</text><text text-anchor="end" transform="translate(-7,212.5)" font-family="sans-serif" font-size="10px" fill="#000" opacity="1">Arp</text><text text-anchor="end" transform="translate(-7,232.5)" font-family="sans-serif" font-size="10px" fill="#000" opacity="1">Beyeler</text><text text-anchor="end" transform="translate(-7,252.5)" font-family="sans-serif" font-size="10px" fill="#000" opacity="1">Braunschweig</text><text text-anchor="end" transform="translate(-7,272.5)" font-family="sans-serif" font-size="10px" fill="#000" opacity="1">Edlich</text><text text-anchor="end" transform="translate(-7,292.5)" font-family="sans-serif" font-size="10px" fill="#000" opacity="1">Hebel</text><text text-anchor="end" transform="translate(-7,312.5)" font-family="sans-serif" font-size="10px" fill="#000" opacity="1">Iwaszkiewicz</text><text text-anchor="end" transform="translate(-7,332.5)" font-family="sans-serif" font-size="10px" fill="#000" opacity="1">Kampmann</text><text text-anchor="end" transform="translate(-7,352.5)" font-family="sans-serif" font-size="10px" fill="#000" opacity="1">Lewald</text><text text-anchor="end" transform="translate(-7,372.5)" font-family="sans-serif" font-size="10px" fill="#000" opacity="1">Lindenfeld</text><text text-anchor="end" transform="translate(-7,392.5)" font-family="sans-serif" font-size="10px" fill="#000" opacity="1">Loeb</text><text text-anchor="end" transform="translate(-7,412.5)" font-family="sans-serif" font-size="10px" fill="#000" opacity="1">Majakovskij</text><text text-anchor="end" transform="translate(-7,432.5)" font-family="sans-serif" font-size="10px" fill="#000" opacity="1">Moholy-Nagy</text><text text-anchor="end" transform="translate(-7,452.5)" font-family="sans-serif" font-size="10px" fill="#000" opacity="1">Müller-Widmann</text><text text-anchor="end" transform="translate(-7,472.5)" font-family="sans-serif" font-size="10px" fill="#000" opacity="1">Poeschel</text><text text-anchor="end" transform="translate(-7,492.5)" font-family="sans-serif" font-size="10px" fill="#000" opacity="1">Reymond</text><text text-anchor="end" transform="translate(-7,512.5)" font-family="sans-serif" font-size="10px" fill="#000" opacity="1">Seddon</text><text text-anchor="end" transform="translate(-7,532.5)" font-family="sans-serif" font-size="10px" fill="#000" opacity="1">Wackernagel</text></g><g class="mark-text role-axis-title" pointer-events="none"><text text-anchor="middle" transform="translate(-83.79296875,270) rotate(-90) translate(0,-2)" font-family="sans-serif" font-size="11px" font-weight="bold" fill="#000" opacity="1">Auftraggeber</text></g></g><path class="foreground" aria-hidden="true" d="" pointer-events="none" display="none"/></g></g><g class="mark-rect role-mark layer_0_marks" role="graphics-symbol" aria-roledescription="rect mark container"><path d="M0,201h100v18h-100Z" fill="#4c78a8"/><path d="M0,221h100v18h-100Z" fill="#4c78a8"/><path d="M0,41h200v18h-200Z" fill="#4c78a8"/><path d="M0,241h100v18h-100Z" fill="#4c78a8"/><path d="M0,261h100v18h-100Z" fill="#4c78a8"/><path d="M0,21h250v18h-250Z" fill="#4c78a8"/><path d="M0,61h200v18h-200Z" fill="#4c78a8"/><path d="M0,281h100v18h-100Z" fill="#4c78a8"/><path d="M0,101h150v18h-150Z" fill="#4c78a8"/><path d="M0,301h100v18h-100Z" fill="#4c78a8"/><path d="M0,321h100v18h-100Z" fill="#4c78a8"/><path d="M0,1h400v18h-400Z" fill="#4c78a8"/><path d="M0,121h150v18h-150Z" fill="#4c78a8"/><path d="M0,341h100v18h-100Z" fill="#4c78a8"/><path d="M0,361h100v18h-100Z" fill="#4c78a8"/><path d="M0,381h100v18h-100Z" fill="#4c78a8"/><path d="M0,401h100v18h-100Z" fill="#4c78a8"/><path d="M0,421h100v18h-100Z" fill="#4c78a8"/><path d="M0,141h150v18h-150Z" fill="#4c78a8"/><path d="M0,441h100v18h-100Z" fill="#4c78a8"/><path d="M0,81h200v18h-200Z" fill="#4c78a8"/><path d="M0,461h100v18h-100Z" fill="#4c78a8"/><path d="M0,481h100v18h-100Z" fill="#4c78a8"/><path d="M0,501h100v18h-100Z" fill="#4c78a8"/><path d="M0,521h100v18h-100Z" fill="#4c78a8"/><path d="M0,161h150v18h-150Z" fill="#4c78a8"/><path d="M0,181h150v18h-150Z" fill="#4c78a8"/></g><g class="mark-text role-mark layer_1_marks" role="graphics-object" aria-roledescription="text mark container"><text text-anchor="start" transform="translate(103,213)" font-family="sans-serif" font-size="11px" fill="black">2</text><text text-anchor="start" transform="translate(103,233)" font-family="sans-serif" font-size="11px" fill="black">2</text><text text-anchor="start" transform="translate(203,53)" font-family="sans-serif" font-size="11px" fill="black">4</text><text text-anchor="start" transform="translate(103,253)" font-family="sans-serif" font-size="11px" fill="black">2</text><text text-anchor="start" transform="translate(103,273)" font-family="sans-serif" font-size="11px" fill="black">2</text><text text-anchor="start" transform="translate(253,33)" font-family="sans-serif" font-size="11px" fill="black">5</text><text text-anchor="start" transform="translate(203,73)" font-family="sans-serif" font-size="11px" fill="black">4</text><text text-anchor="start" transform="translate(103,293)" font-family="sans-serif" font-size="11px" fill="black">2</text><text text-anchor="start" transform="translate(153,113)" font-family="sans-serif" font-size="11px" fill="black">3</text><text text-anchor="start" transform="translate(103,313)" font-family="sans-serif" font-size="11px" fill="black">2</text><text text-anchor="start" transform="translate(103,333)" font-family="sans-serif" font-size="11px" fill="black">2</text><text text-anchor="start" transform="translate(403,13)" font-family="sans-serif" font-size="11px" fill="black">8</text><text text-anchor="start" transform="translate(153,133)" font-family="sans-serif" font-size="11px" fill="black">3</text><text text-anchor="start" transform="translate(103,353)" font-family="sans-serif" font-size="11px" fill="black">2</text><text text-anchor="start" transform="translate(103,373)" font-family="sans-serif" font-size="11px" fill="black">2</text><text text-anchor="start" transform="translate(103,393)" font-family="sans-serif" font-size="11px" fill="black">2</text><text text-anchor="start" transform="translate(103,413)" font-family="sans-serif" font-size="11px" fill="black">2</text><text text-anchor="start" transform="translate(103,433)" font-family="sans-serif" font-size="11px" fill="black">2</text><text text-anchor="start" transform="translate(153,153)" font-family="sans-serif" font-size="11px" fill="black">3</text><text text-anchor="start" transform="translate(103,453)" font-family="sans-serif" font-size="11px" fill="black">2</text><text text-anchor="start" transform="translate(203,93)" font-family="sans-serif" font-size="11px" fill="black">4</text><text text-anchor="start" transform="translate(103,473)" font-family="sans-serif" font-size="11px" fill="black">2</text><text text-anchor="start" transform="translate(103,493)" font-family="sans-serif" font-size="11px" fill="black">2</text><text text-anchor="start" transform="translate(103,513)" font-family="sans-serif" font-size="11px" fill="black">2</text><text text-anchor="start" transform="translate(103,533)" font-family="sans-serif" font-size="11px" fill="black">2</text><text text-anchor="start" transform="translate(153,173)" font-family="sans-serif" font-size="11px" fill="black">3</text><text text-anchor="start" transform="translate(153,193)" font-family="sans-serif" font-size="11px" fill="black">3</text></g></g><path class="foreground" aria-hidden="true" d="" display="none"/></g></g></g></svg>