<svg xmlns="http://www.w3.org/2000/svg" xmlns:xlink="http://www.w3.org/1999/xlink" version="1.1" class="marks" width="629" height="662" viewBox="0 0 629 662"><rect width="629" height="662" fill="white"/><g fill="none" stroke-miterlimit="10" transform="translate(206,5)"><g class="mark-group role-frame root" role="graphics-object" aria-roledescription="group mark container"><g transform="translate(0,0)"><path class="background" aria-hidden="true" d="M0.5,0.5h400v620h-400Z" stroke="#ddd"/><g><g class="mark-group role-axis" role="graphics-symbol" aria-roledescription="axis" aria-label="X-axis for a linear scale with values from 0 to 220"><g transform="translate(0.5,620.5)"><path class="background" aria-hidden="true" d="M0,0h0v0h0Z" pointer-events="none"/><g><g class="mark-rule role-axis-grid" pointer-events="none"><line transform="translate(0,0)" x2="0" y2="-620" stroke="#ddd" stroke-width="1" opacity="1"/><line transform="translate(36,0)" x2="0" y2="-620" stroke="#ddd" stroke-width="1" opacity="1"/><line transform="translate(73,0)" x2="0" y2="-620" stroke="#ddd" stroke-width="1" opacity="1"/><line transform="translate(109,0)" x2="0" y2="-620" stroke="#ddd" stroke-width="1" opacity="1"/><line transform="translate(145,0)" x2="0" y2="-620" stroke="#ddd" stroke-width="1" opacity="1"/><line transform="translate(182,0)" x2="0" y2="-620" stroke="#ddd" stroke-width="1" opacity="1"/><line transform="translate(218,0)" x2="0" y2="-620" stroke="#ddd" stroke-width="1" opacity="1"/><line transform="translate(255,0)" x2="0" y2="-620" stroke="#ddd" stroke-width="1" opacity="1"/><line transform="translate(291,0)" x2="0" y2="-620" stroke="#ddd" stroke-width="1" opacity="1"/><line transform="translate(327,0)" x2="0" y2="-620" stroke="#ddd" stroke-width="1" opacity="1"/><line transform="translate(364,0)" x2="0" y2="-620" stroke="#ddd" stroke-width="1" opacity="1"/><line transform="translate(400,0)" x2="0" y2="-620" stroke="#ddd" stroke-width="1" opacity="1"/></g></g><path class="foreground" aria-hidden="true" d="" pointer-events="none" display="none"/></g></g><g class="mark-group role-axis" role="graphics-symbol" aria-roledescription="axis" aria-label="X-axis titled 'Datensätze' for a linear scale with values from 0 to 220"><g transform="translate(0.5,620.5)"><path class="background" aria-hidden="true" d="M0,0h0v0h0Z" pointer-events="none"/><g><g class="mark-rule role-axis-tick" pointer-events="none"><line transform="translate(0,0)" x2="0" y2="5" stroke="#888" stroke-width="1" opacity="1"/><line transform="translate(36,0)" x2="0" y2="5" stroke="#888" stroke-width="1" opacity="1"/><line transform="translate(73,0)" x2="0" y2="5" stroke="#888" stroke-width="1" opacity="1"/><line transform="translate(109,0)" x2="0" y2="5" stroke="#888" stroke-width="1" opacity="1"/><line transform="translate(145,0)" x2="0" y2="5" stroke="#888" stroke-width="1" opacity="1"/><line transform="translate(182,0)" x2="0" y2="5" stroke="#888" stroke-width="1" opacity="1"/><line transform="translate(218,0)" x2="0" y2="5" stroke="#888" stroke-width="1" opacity="1"/><line transform="translate(255,0)" x2="0" y2="5" stroke="#888" stroke-width="1" opacity="1"/><line transform="translate(291,0)" x2="0" y2="5" stroke="#888" stroke-width="1" opacity="1"/><line transform="translate(327,0)" x2="0" y2="5" stroke="#888" stroke-width="1" opacity="1"/><line transform="translate(364,0)" x2="0" y2="5" stroke="#888" stroke-width="1" opacity="1"/><line transform="translate(400,0)" x2="0" y2="5" stroke="#888" stroke-width="1" opacity="1"/></g><g class="mark-text role-axis-label" pointer-events="none"><text text-anchor="start" transform="translate(0,15)" font-family="sans-serif" font-size="10px" fill="#000" opacity="1">0</text><text text-anchor="middle" transform="translate(36.36363636363637,15)" font-family="sans-serif" font-size="10px" fill="#000" opacity="1">20</text><text text-anchor="middle" transform="translate(72.72727272727273,15)" font-family="sans-serif" font-size="10px" fill="#000" opacity="1">40</text><text text-anchor="middle" transform="translate(109.09090909090908,15)" font-family="sans-serif" font-size="10px" fill="#000" opacity="1">60</text><text text-anchor="middle" transform="translate(145.45454545454547,15)" font-family="sans-serif" font-size="10px" fill="#000" opacity="1">80</text><text text-anchor="middle" transform="translate(181.8181818181818,15)" font-family="sans-serif" font-size="10px" fill="#000" opacity="1">100</text><text text-anchor="middle" transform="translate(218.18181818181816,15)" font-family="sans-serif" font-size="10px" fill="#000" opacity="1">120</text><text text-anchor="middle" transform="translate(254.54545454545453,15)" font-family="sans-serif" font-size="10px" fill="#000" opacity="1">140</text><text text-anchor="middle" transform="translate(290.90909090909093,15)" font-family="sans-serif" font-size="10px" fill="#000" opacity="1">160</text><text text-anchor="middle" transform="translate(327.2727272727273,15)" font-family="sans-serif" font-size="10px" fill="#000" opacity="1">180</text><text text-anchor="middle" transform="translate(363.6363636363636,15)" font-family="sans-serif" font-size="10px" fill="#000" opacity="1">200</text><text text-anchor="end" transform="translate(400,15)" font-family="sans-serif" font-size="10px" fill="#000" opacity="1">220</text></g><g class="mark-rule role-axis-domain" pointer-events="none"><line transform="translate(0,0)" x2="400" y2="0" stroke="#888" stroke-width="1" opacity="1"/></g><g class="mark-text role-axis-title" pointer-events="none"><text text-anchor="middle" transform="translate(200,30)" font-family="sans-serif" font-size="11px" font-weight="bold" fill="#000" opacity="1">Datensätze</text></g></g><path class="foreground" aria-hidden="true" d="" pointer-events="none" display="none"/></g></g><g class="mark-group role-axis" role="graphics-symbol" aria-roledescription="axis" aria-label="Y-axis titled 'Auftraggeber' for a discrete scale with 31 values: Birkhäuser, Penguin Books, Holbein-Verlag, Schwabe &amp; Co., Insel Verlag Anton Kippenberg, Leipzig, ending with Testor Treuhand AG"><g transform="translate(0.5,0.5)"><path class="background" aria-hidden="true" d="M0,0h0v0h0Z" pointer-events="none"/><g><g class="mark-rule role-axis-tick" pointer-events="none"><line transform="translate(0,10)" x2="-5" y2="0" stroke="#888" stroke-width="1" opacity="1"/><line transform="translate(0,30)" x2="-5" y2="0" stroke="#888" stroke-width="1" opacity="1"/><line transform="translate(0,50)" x2="-5" y2="0" stroke="#888" stroke-width="1" opacity="1"/><line transform="translate(0,70)" x2="-5" y2="0" stroke="#888" stroke-width="1" opacity="1"/><line transform="translate(0,90)" x2="-5" y2="0" stroke="#888" stroke-width="1" opacity="1"/><line transform="translate(0,110)" x2="-5" y2="0" stroke="#888" stroke-width="1" opacity="1"/><line transform="translate(0,130)" x2="-5" y2="0" stroke="#888" stroke-width="1" opacity="1"/><line transform="translate(0,150)" x2="-5" y2="0" stroke="#888" stroke-width="1" opacity="1"/><line transform="translate(0,170)" x2="-5" y2="0" stroke="#888" stroke-width="1" opacity="1"/><line transform="translate(0,190)" x2="-5" y2="0" stroke="#888" stroke-width="1" opacity="1"/><line transform="translate(0,210)" x2="-5" y2="0" stroke="#888" stroke-width="1" opacity="1"/><line transform="translate(0,230)" x2="-5" y2="0" stroke="#888" stroke-width="1" opacity="1"/><line transform="translate(0,250)" x2="-5" y2="0" stroke="#888" stroke-width="1" opacity="1"/><line transform="translate(0,270)" x2="-5" y2="0" stroke="#888" stroke-width="1" opacity="1"/><line transform="translate(0,290)" x2="-5" y2="0" stroke="#888" stroke-width="1" opacity="1"/><line transform="translate(0,310)" x2="-5" y2="0" stroke="#888" stroke-width="1" opacity="1"/><line transform="translate(0,330)" x2="-5" y2="0" stroke="#888" stroke-width="1" opacity="1"/><line transform="translate(0,350)" x2="-5" y2="0" stroke="#888" stroke-width="1" opacity="1"/><line transform="translate(0,370)" x2="-5" y2="0" stroke="#888" stroke-width="1" opacity="1"/><line transform="translate(0,390)" x2="-5" y2="0" stroke="#888" stroke-width="1" opacity="1"/><line transform="translate(0,410)" x2="-5" y2="0" stroke="#888" stroke-width="1" opacity="1"/><line transform="translate(0,430)" x2="-5" y2="0" stroke="#888" stroke-width="1" opacity="1"/><line transform="translate(0,450)" x2="-5" y2="0" stroke="#888" stroke-width="1" opacity="1"/><line transform="translate(0,470)" x2="-5" y2="0" stroke="#888" stroke-width="1" opacity="1"/><line transform="translate(0,490)" x2="-5" y2="0" stroke="#888" stroke-width="1" opacity="1"/><line transform="translate(0,510)" x2="-5" y2="0" stroke="#888" stroke-width="1" opacity="1"/><line transform="translate(0,530)" x2="-5" y2="0" stroke="#888" stroke-width="1" opacity="1"/><line transform="translate(0,550)" x2="-5" y2="0" stroke="#888" stroke-width="1" opacity="1"/><line transform="translate(0,570)" x2="-5" y2="0" stroke="#888" stroke-width="1" opacity="1"/><line transform="translate(0,590)" x2="-5" y2="0" stroke="#888" stroke-width="1" opacity="1"/><line transform="translate(0,610)" x2="-5" y2="0" stroke="#888" stroke-width="1" opacity="1"/></g><g class="mark-text role-axis-label" pointer-events="none"><text text-anchor="end" transform="translate(-7,12.5)" font-family="sans-serif" font-size="10px" fill="#000" opacity="1">Birkhäuser</text><text text-anchor="end" transform="translate(-7,32.5)" font-family="sans-serif" font-size="10px" fill="#000" opacity="1">Penguin Books</text><text text-anchor="end" transform="translate(-7,52.5)" font-family="sans-serif" font-size="10px" fill="#000" opacity="1">Holbein-Verlag</text><text text-anchor="end" transform="translate(-7,72.5)" font-family="sans-serif" font-size="10px" fill="#000" opacity="1">Schwabe &amp; Co.</text><text text-anchor="end" transform="translate(-7,92.5)" font-family="sans-serif" font-size="10px" fill="#000" opacity="1">Insel Verlag Anton Kippenberg, Leipzig</text><text text-anchor="end" transform="translate(-7,112.5)" font-family="sans-serif" font-size="10px" fill="#000" opacity="1">Bucherer, Kurrus &amp; Co., Papiere en gros</text><text text-anchor="end" transform="translate(-7,132.5)" font-family="sans-serif" font-size="10px" fill="#000" opacity="1">Uhertype AG</text><text text-anchor="end" transform="translate(-7,152.5)" font-family="sans-serif" font-size="10px" fill="#000" opacity="1">Wydawnictwo Philobiblon</text><text text-anchor="end" transform="translate(-7,172.5)" font-family="sans-serif" font-size="10px" fill="#000" opacity="1">Josef-Stocker-AG</text><text text-anchor="end" transform="translate(-7,192.5)" font-family="sans-serif" font-size="10px" fill="#000" opacity="1">Percy Lund, Humphries and Co.</text><text text-anchor="end" transform="translate(-7,212.5)" font-family="sans-serif" font-size="10px" fill="#000" opacity="1">Verlag Lambert Schneider</text><text text-anchor="end" transform="translate(-7,232.5)" font-family="sans-serif" font-size="10px" fill="#000" opacity="1">Musik-Akademie Basel</text><text text-anchor="end" transform="translate(-7,252.5)" font-family="sans-serif" font-size="10px" fill="#000" opacity="1">Benno Schwabe und Co.</text><text text-anchor="end" transform="translate(-7,272.5)" font-family="sans-serif" font-size="10px" fill="#000" opacity="1">Offizin Gebrüder Fretz</text><text text-anchor="end" transform="translate(-7,292.5)" font-family="sans-serif" font-size="10px" fill="#000" opacity="1">Phoebus-Palast</text><text text-anchor="end" transform="translate(-7,312.5)" font-family="sans-serif" font-size="10px" fill="#000" opacity="1">Heinrich Majer Verlag</text><text text-anchor="end" transform="translate(-7,332.5)" font-family="sans-serif" font-size="10px" fill="#000" opacity="1">Bücherkreis</text><text text-anchor="end" transform="translate(-7,352.5)" font-family="sans-serif" font-size="10px" fill="#000" opacity="1">Fischer &amp; Wittig</text><text text-anchor="end" transform="translate(-7,372.5)" font-family="sans-serif" font-size="10px" fill="#000" opacity="1">Burg-Verlag</text><text text-anchor="end" transform="translate(-7,392.5)" font-family="sans-serif" font-size="10px" fill="#000" opacity="1">Eugen-Rentsch-Verlag</text><text text-anchor="end" transform="translate(-7,412.5)" font-family="sans-serif" font-size="10px" fill="#000" opacity="1">Freunde Alter Musik in Basel</text><text text-anchor="end" transform="translate(-7,432.5)" font-family="sans-serif" font-size="10px" fill="#000" opacity="1">Georg-Rentsch-Söhne</text><text text-anchor="end" transform="translate(-7,452.5)" font-family="sans-serif" font-size="10px" fill="#000" opacity="1">Gewerbemuseum Basel</text><text text-anchor="end" transform="translate(-7,472.5)" font-family="sans-serif" font-size="10px" fill="#000" opacity="1">Interavia SA</text><text text-anchor="end" transform="translate(-7,492.5)" font-family="sans-serif" font-size="10px" fill="#000" opacity="1">Leipziger Messeamt</text><text text-anchor="end" transform="translate(-7,512.5)" font-family="sans-serif" font-size="10px" fill="#000" opacity="1">München</text><text text-anchor="end" transform="translate(-7,532.5)" font-family="sans-serif" font-size="10px" fill="#000" opacity="1">Ravensburger Buchverlag Otto Maier</text><text text-anchor="end" transform="translate(-7,552.5)" font-family="sans-serif" font-size="10px" fill="#000" opacity="1">Bildungsverband der Deutschen Buch…</text><text text-anchor="end" transform="translate(-7,572.5)" font-family="sans-serif" font-size="10px" fill="#000" opacity="1">Otto-Maier-Verlag</text><text text-anchor="end" transform="translate(-7,592.5)" font-family="sans-serif" font-size="10px" fill="#000" opacity="1">Schweizerischer Typographenbund</text><text text-anchor="end" transform="translate(-7,612.5)" font-family="sans-serif" font-size="10px" fill="#000" opacity="1">Testor Treuhand AG</text></g><g class="mark-rule role-axis-domain" pointer-events="none"><line transform="translate(0,0)" x2="0" y2="620" stroke="#888" stroke-width="1" opacity="1"/></g><g class="mark-text role-axis-title" pointer-events="none"><text text-anchor="middle" transform="translate(-189.9794921875,310) rotate(-90) translate(0,-2)" font-family="sans-serif" font-size="11px" font-weight="bold" fill="#000" opacity="1">Auftraggeber</text></g></g><path class="foreground" aria-hidden="true" d="" pointer-events="none" display="none"/></g></g><g class="mark-rect role-mark layer_0_marks" role="graphics-symbol" aria-roledescription="rect mark container"><path d="M0,241h27.27272727272727v18h-27.27272727272727Z" fill="#4c78a8"/><path d="M0,541h18.181818181818183v18h-18.181818181818183Z" fill="#4c78a8"/><path d="M0,1h396.3636363636364v18h-396.3636363636364Z" fill="#4c78a8"/><path d="M0,101h72.72727272727273v18h-72.72727272727273Z" fill="#4c78a8"/><path d="M0,361h20v18h-20Z" fill="#4c78a8"/><path d="M0,321h23.636363636363637v18h-23.636363636363637Z" fill="#4c78a8"/><path d="M0,381h20v18h-20Z" fill="#4c78a8"/><path d="M0,341h21.818181818181817v18h-21.818181818181817Z" fill="#4c78a8"/><path d="M0,401h20v18h-20Z" fill="#4c78a8"/><path d="M0,421h20v18h-20Z" fill="#4c78a8"/><path d="M0,441h20v18h-20Z" fill="#4c78a8"/><path d="M0,301h25.454545454545453v18h-25.454545454545453Z" fill="#4c78a8"/><path d="M0,41h145.45454545454547v18h-145.45454545454547Z" fill="#4c78a8"/><path d="M0,81h78.18181818181819v18h-78.18181818181819Z" fill="#4c78a8"/><path d="M0,461h20v18h-20Z" fill="#4c78a8"/><path d="M0,161h36.36363636363637v18h-36.36363636363637Z" fill="#4c78a8"/><path d="M0,481h20v18h-20Z" fill="#4c78a8"/><path d="M0,221h29.09090909090909v18h-29.09090909090909Z" fill="#4c78a8"/><path d="M0,501h20v18h-20Z" fill="#4c78a8"/><path d="M0,261h27.27272727272727v18h-27.27272727272727Z" fill="#4c78a8"/><path d="M0,561h18.181818181818183v18h-18.181818181818183Z" fill="#4c78a8"/><path d="M0,21h369.09090909090907v18h-369.09090909090907Z" fill="#4c78a8"/><path d="M0,181h34.54545454545455v18h-34.54545454545455Z" fill="#4c78a8"/><path d="M0,281h27.27272727272727v18h-27.27272727272727Z" fill="#4c78a8"/><path d="M0,521h20v18h-20Z" fill="#4c78a8"/><path d="M0,61h83.63636363636363v18h-83.63636363636363Z" fill="#4c78a8"/><path d="M0,581h18.181818181818183v18h-18.181818181818183Z" fill="#4c78a8"/><path d="M0,601h18.181818181818183v18h-18.181818181818183Z" fill="#4c78a8"/><path d="M0,121h47.27272727272727v18h-47.27272727272727Z" fill="#4c78a8"/><path d="M0,201h32.72727272727273v18h-32.72727272727273Z" fill="#4c78a8"/><path d="M0,141h38.18181818181819v18h-38.18181818181819Z" fill="#4c78a8"/></g><g class="mark-text role-mark layer_1_marks" role="graphics-object" aria-roledescription="text mark container"><text text-anchor="start" transform="translate(30.27272727272727,253)" font-family="sans-serif" font-size="11px" fill="black">15</text><text text-anchor="start" transform="translate(21.181818181818183,553)" font-family="sans-serif" font-size="11px" fill="black">10</text><text text-anchor="start" transform="translate(399.3636363636364,13)" font-family="sans-serif" font-size="11px" fill="black">218</text><text text-anchor="start" transform="translate(75.72727272727273,113)" font-family="sans-serif" font-size="11px" fill="black">40</text><text text-anchor="start" transform="translate(23,373)" font-family="sans-serif" font-size="11px" fill="black">11</text><text text-anchor="start" transform="translate(26.636363636363637,333)" font-family="sans-serif" font-size="11px" fill="black">13</text><text text-anchor="start" transform="translate(23,393)" font-family="sans-serif" font-size="11px" fill="black">11</text><text text-anchor="start" transform="translate(24.818181818181817,353)" font-family="sans-serif" font-size="11px" fill="black">12</text><text text-anchor="start" transform="translate(23,413)" font-family="sans-serif" font-size="11px" fill="black">11</text><text text-anchor="start" transform="translate(23,433)" font-family="sans-serif" font-size="11px" fill="black">11</text><text text-anchor="start" transform="translate(23,453)" font-family="sans-serif" font-size="11px" fill="black">11</text><text text-anchor="start" transform="translate(28.454545454545453,313)" font-family="sans-serif" font-size="11px" fill="black">14</text><text text-anchor="start" transform="translate(148.45454545454547,53)" font-family="sans-serif" font-size="11px" fill="black">80</text><text text-anchor="start" transform="translate(81.18181818181819,93)" font-family="sans-serif" font-size="11px" fill="black">43</text><text text-anchor="start" transform="translate(23,473)" font-family="sans-serif" font-size="11px" fill="black">11</text><text text-anchor="start" transform="translate(39.36363636363637,173)" font-family="sans-serif" font-size="11px" fill="black">20</text><text text-anchor="start" transform="translate(23,493)" font-family="sans-serif" font-size="11px" fill="black">11</text><text text-anchor="start" transform="translate(32.09090909090909,233)" font-family="sans-serif" font-size="11px" fill="black">16</text><text text-anchor="start" transform="translate(23,513)" font-family="sans-serif" font-size="11px" fill="black">11</text><text text-anchor="start" transform="translate(30.27272727272727,273)" font-family="sans-serif" font-size="11px" fill="black">15</text><text text-anchor="start" transform="translate(21.181818181818183,573)" font-family="sans-serif" font-size="11px" fill="black">10</text><text text-anchor="start" transform="translate(372.09090909090907,33)" font-family="sans-serif" font-size="11px" fill="black">203</text><text text-anchor="start" transform="translate(37.54545454545455,193)" font-family="sans-serif" font-size="11px" fill="black">19</text><text text-anchor="start" transform="translate(30.27272727272727,293)" font-family="sans-serif" font-size="11px" fill="black">15</text><text text-anchor="start" transform="translate(23,533)" font-family="sans-serif" font-size="11px" fill="black">11</text><text text-anchor="start" transform="translate(86.63636363636363,73)" font-family="sans-serif" font-size="11px" fill="black">46</text><text text-anchor="start" transform="translate(21.181818181818183,593)" font-family="sans-serif" font-size="11px" fill="black">10</text><text text-anchor="start" transform="translate(21.181818181818183,613)" font-family="sans-serif" font-size="11px" fill="black">10</text><text text-anchor="start" transform="translate(50.27272727272727,133)" font-family="sans-serif" font-size="11px" fill="black">26</text><text text-anchor="start" transform="translate(35.72727272727273,213)" font-family="sans-serif" font-size="11px" fill="black">18</text><text text-anchor="start" transform="translate(41.18181818181819,153)" font-family="sans-serif" font-size="11px" fill="black">21</text></g></g><path class="foreground" aria-hidden="true" d="" display="none"/></g></g></g></svg>