<svg xmlns="http://www.w3.org/2000/svg" xmlns:xlink="http://www.w3.org/1999/xlink" version="1.1" class="marks" width="515" height="722" viewBox="0 0 515 722"><rect width="515" height="722" fill="white"/><g fill="none" stroke-miterlimit="10" transform="translate(109,5)"><g class="mark-group role-frame root" role="graphics-object" aria-roledescription="group mark container"><g transform="translate(0,0)"><path class="background" aria-hidden="true" d="M0.5,0.5h400v680h-400Z"/><g><g class="mark-group role-axis" role="graphics-symbol" aria-roledescription="axis" aria-label="X-axis for a linear scale with values from 0 to 240"><g transform="translate(0.5,680.5)"><path class="background" aria-hidden="true" d="M0,0h0v0h0Z" pointer-events="none"/><g><g class="mark-rule role-axis-grid" pointer-events="none"><line transform="translate(0,0)" x2="0" y2="-680" stroke="#ddd" stroke-width="1" opacity="1"/><line transform="translate(33,0)" x2="0" y2="-680" stroke="#ddd" stroke-width="1" opacity="1"/><line transform="translate(67,0)" x2="0" y2="-680" stroke="#ddd" stroke-width="1" opacity="1"/><line transform="translate(100,0)" x2="0" y2="-680" stroke="#ddd" stroke-width="1" opacity="1"/><line transform="translate(133,0)" x2="0" y2="-680" stroke="#ddd" stroke-width="1" opacity="1"/><line transform="translate(167,0)" x2="0" y2="-680" stroke="#ddd" stroke-width="1" opacity="1"/><line transform="translate(200,0)" x2="0" y2="-680" stroke="#ddd" stroke-width="1" opacity="1"/><line transform="translate(233,0)" x2="0" y2="-680" stroke="#ddd" stroke-width="1" opacity="1"/><line transform="translate(267,0)" x2="0" y2="-680" stroke="#ddd" stroke-width="1" opacity="1"/><line transform="translate(300,0)" x2="0" y2="-680" stroke="#ddd" stroke-width="1" opacity="1"/><line transform="translate(333,0)" x2="0" y2="-680" stroke="#ddd" stroke-width="1" opacity="1"/><line transform="translate(367,0)" x2="0" y2="-680" stroke="#ddd" stroke-width="1" opacity="1"/><line transform="translate(400,0)" x2="0" y2="-680" stroke="#ddd" stroke-width="1" opacity="1"/></g></g><path class="foreground" aria-hidden="true" d="" pointer-events="none" display="none"/></g></g><g class="mark-group role-axis" role="graphics-symbol" aria-roledescription="axis" aria-label="X-axis titled 'Datensätze' for a linear scale with values from 0 to 240"><g transform="translate(0.5,680.5)"><path class="background" aria-hidden="true" d="M0,0h0v0h0Z" pointer-events="none"/><g><g class="mark-rule role-axis-tick" pointer-events="none"><line transform="translate(0,0)" x2="0" y2="5" stroke="#888" stroke-width="1" opacity="1"/><line transform="translate(33,0)" x2="0" y2="5" stroke="#888" stroke-width="1" opacity="1"/><line transform="translate(67,0)" x2="0" y2="5" stroke="#888" stroke-width="1" opacity="1"/><line transform="translate(100,0)" x2="0" y2="5" stroke="#888" stroke-width="1" opacity="1"/><line transform="translate(133,0)" x2="0" y2="5" stroke="#888" stroke-width="1" opacity="1"/><line transform="translate(167,0)" x2="0" y2="5" stroke="#888" stroke-width="1" opacity="1"/><line transform="translate(200,0)" x2="0" y2="5" stroke="#888" stroke-width="1" opacity="1"/><line transform="translate(233,0)" x2="0" y2="5" stroke="#888" stroke-width="1" opacity="1"/><line transform="translate(267,0)" x2="0" y2="5" stroke="#888" stroke-width="1" opacity="1"/><line transform="translate(300,0)" x2="0" y2="5" stroke="#888" stroke-width="1" opacity="1"/><line transform="translate(333,0)" x2="0" y2="5" stroke="#888" stroke-width="1" opacity="1"/><line transform="translate(367,0)" x2="0" y2="5" stroke="#888" stroke-width="1" opacity="1"/><line transform="translate(400,0)" x2="0" y2="5" stroke="#888" stroke-width="1" opacity="1"/></g><g class="mark-text role-axis-label" pointer-events="none"><text text-anchor="start" transform="translate(0,15)" font-family="sans-serif" font-size="10px" fill="#000" opacity="1">0</text><text text-anchor="middle" transform="translate(33.33333333333333,15)" font-family="sans-serif" font-size="10px" fill="#000" opacity="1">20</text><text text-anchor="middle" transform="translate(66.66666666666666,15)" font-family="sans-serif" font-size="10px" fill="#000" opacity="1">40</text><text text-anchor="middle" transform="translate(100,15)" font-family="sans-serif" font-size="10px" fill="#000" opacity="1">60</text><text text-anchor="middle" transform="translate(133.33333333333331,15)" font-family="sans-serif" font-size="10px" fill="#000" opacity="1">80</text><text text-anchor="middle" transform="translate(166.66666666666669,15)" font-family="sans-serif" font-size="10px" fill="#000" opacity="1">100</text><text text-anchor="middle" transform="translate(200,15)" font-family="sans-serif" font-size="10px" fill="#000" opacity="1">120</text><text text-anchor="middle" transform="translate(233.33333333333334,15)" font-family="sans-serif" font-size="10px" fill="#000" opacity="1">140</text><text text-anchor="middle" transform="translate(266.66666666666663,15)" font-family="sans-serif" font-size="10px" fill="#000" opacity="1">160</text><text text-anchor="middle" transform="translate(300,15)" font-family="sans-serif" font-size="10px" fill="#000" opacity="1">180</text><text text-anchor="middle" transform="translate(333.33333333333337,15)" font-family="sans-serif" font-size="10px" fill="#000" opacity="1">200</text><text text-anchor="middle" transform="translate(366.66666666666663,15)" font-family="sans-serif" font-size="10px" fill="#000" opacity="1">220</text><text text-anchor="end" transform="translate(400,15)" font-family="sans-serif" font-size="10px" fill="#000" opacity="1">240</text></g><g class="mark-text role-axis-title" pointer-events="none"><text text-anchor="middle" transform="translate(200,30)" font-family="sans-serif" font-size="11px" font-weight="bold" fill="#000" opacity="1">Datensätze</text></g></g><path class="foreground" aria-hidden="true" d="" pointer-events="none" display="none"/></g></g><g class="mark-group role-axis" role="graphics-symbol" aria-roledescription="axis" aria-label="Y-axis titled 'Gattung' for a discrete scale with 34 values: Titelblatt, Umschlag, Bucheinband, Schutzumschlag, Briefbogen, ending with Notiz"><g transform="translate(0.5,0.5)"><path class="background" aria-hidden="true" d="M0,0h0v0h0Z" pointer-events="none"/><g><g class="mark-rule role-axis-tick" pointer-events="none"><line transform="translate(0,10)" x2="-5" y2="0" stroke="#888" stroke-width="1" opacity="1"/><line transform="translate(0,30)" x2="-5" y2="0" stroke="#888" stroke-width="1" opacity="1"/><line transform="translate(0,50)" x2="-5" y2="0" stroke="#888" stroke-width="1" opacity="1"/><line transform="translate(0,70)" x2="-5" y2="0" stroke="#888" stroke-width="1" opacity="1"/><line transform="translate(0,90)" x2="-5" y2="0" stroke="#888" stroke-width="1" opacity="1"/><line transform="translate(0,110)" x2="-5" y2="0" stroke="#888" stroke-width="1" opacity="1"/><line transform="translate(0,130)" x2="-5" y2="0" stroke="#888" stroke-width="1" opacity="1"/><line transform="translate(0,150)" x2="-5" y2="0" stroke="#888" stroke-width="1" opacity="1"/><line transform="translate(0,170)" x2="-5" y2="0" stroke="#888" stroke-width="1" opacity="1"/><line transform="translate(0,190)" x2="-5" y2="0" stroke="#888" stroke-width="1" opacity="1"/><line transform="translate(0,210)" x2="-5" y2="0" stroke="#888" stroke-width="1" opacity="1"/><line transform="translate(0,230)" x2="-5" y2="0" stroke="#888" stroke-width="1" opacity="1"/><line transform="translate(0,250)" x2="-5" y2="0" stroke="#888" stroke-width="1" opacity="1"/><line transform="translate(0,270)" x2="-5" y2="0" stroke="#888" stroke-width="1" opacity="1"/><line transform="translate(0,290)" x2="-5" y2="0" stroke="#888" stroke-width="1" opacity="1"/><line transform="translate(0,310)" x2="-5" y2="0" stroke="#888" stroke-width="1" opacity="1"/><line transform="translate(0,330)" x2="-5" y2="0" stroke="#888" stroke-width="1" opacity="1"/><line transform="translate(0,350)" x2="-5" y2="0" stroke="#888" stroke-width="1" opacity="1"/><line transform="translate(0,370)" x2="-5" y2="0" stroke="#888" stroke-width="1" opacity="1"/><line transform="translate(0,390)" x2="-5" y2="0" stroke="#888" stroke-width="1" opacity="1"/><line transform="translate(0,410)" x2="-5" y2="0" stroke="#888" stroke-width="1" opacity="1"/><line transform="translate(0,430)" x2="-5" y2="0" stroke="#888" stroke-width="1" opacity="1"/><line transform="translate(0,450)" x2="-5" y2="0" stroke="#888" stroke-width="1" opacity="1"/><line transform="translate(0,470)" x2="-5" y2="0" stroke="#888" stroke-width="1" opacity="1"/><line transform="translate(0,490)" x2="-5" y2="0" stroke="#888" stroke-width="1" opacity="1"/><line transform="translate(0,510)" x2="-5" y2="0" stroke="#888" stroke-width="1" opacity="1"/><line transform="translate(0,530)" x2="-5" y2="0" stroke="#888" stroke-width="1" opacity="1"/><line transform="translate(0,550)" x2="-5" y2="0" stroke="#888" stroke-width="1" opacity="1"/><line transform="translate(0,570)" x2="-5" y2="0" stroke="#888" stroke-width="1" opacity="1"/><line transform="translate(0,590)" x2="-5" y2="0" stroke="#888" stroke-width="1" opacity="1"/><line transform="translate(0,610)" x2="-5" y2="0" stroke="#888" stroke-width="1" opacity="1"/><line transform="translate(0,630)" x2="-5" y2="0" stroke="#888" stroke-width="1" opacity="1"/><line transform="translate(0,650)" x2="-5" y2="0" stroke="#888" stroke-width="1" opacity="1"/><line transform="translate(0,670)" x2="-5" y2="0" stroke="#888" stroke-width="1" opacity="1"/></g><g class="mark-text role-axis-label" pointer-events="none"><text text-anchor="end" transform="translate(-7,12.5)" font-family="sans-serif" font-size="10px" fill="#000" opacity="1">Titelblatt</text><text text-anchor="end" transform="translate(-7,32.5)" font-family="sans-serif" font-size="10px" fill="#000" opacity="1">Umschlag</text><text text-anchor="end" transform="translate(-7,52.5)" font-family="sans-serif" font-size="10px" fill="#000" opacity="1">Bucheinband</text><text text-anchor="end" transform="translate(-7,72.5)" font-family="sans-serif" font-size="10px" fill="#000" opacity="1">Schutzumschlag</text><text text-anchor="end" transform="translate(-7,92.5)" font-family="sans-serif" font-size="10px" fill="#000" opacity="1">Briefbogen</text><text text-anchor="end" transform="translate(-7,112.5)" font-family="sans-serif" font-size="10px" fill="#000" opacity="1">Illustration</text><text text-anchor="end" transform="translate(-7,132.5)" font-family="sans-serif" font-size="10px" fill="#000" opacity="1">Druckschrift</text><text text-anchor="end" transform="translate(-7,152.5)" font-family="sans-serif" font-size="10px" fill="#000" opacity="1">Firmenzeichen</text><text text-anchor="end" transform="translate(-7,172.5)" font-family="sans-serif" font-size="10px" fill="#000" opacity="1">Anzeige</text><text text-anchor="end" transform="translate(-7,192.5)" font-family="sans-serif" font-size="10px" fill="#000" opacity="1">Probedruck</text><text text-anchor="end" transform="translate(-7,212.5)" font-family="sans-serif" font-size="10px" fill="#000" opacity="1">Exlibris</text><text text-anchor="end" transform="translate(-7,232.5)" font-family="sans-serif" font-size="10px" fill="#000" opacity="1">Briefpapier</text><text text-anchor="end" transform="translate(-7,252.5)" font-family="sans-serif" font-size="10px" fill="#000" opacity="1">Verlegermarke</text><text text-anchor="end" transform="translate(-7,272.5)" font-family="sans-serif" font-size="10px" fill="#000" opacity="1">Druckwerk</text><text text-anchor="end" transform="translate(-7,292.5)" font-family="sans-serif" font-size="10px" fill="#000" opacity="1">Titelschild</text><text text-anchor="end" transform="translate(-7,312.5)" font-family="sans-serif" font-size="10px" fill="#000" opacity="1">Glückwunschkarte</text><text text-anchor="end" transform="translate(-7,332.5)" font-family="sans-serif" font-size="10px" fill="#000" opacity="1">Briefumschlag</text><text text-anchor="end" transform="translate(-7,352.5)" font-family="sans-serif" font-size="10px" fill="#000" opacity="1">Gebrauchsgrafik</text><text text-anchor="end" transform="translate(-7,372.5)" font-family="sans-serif" font-size="10px" fill="#000" opacity="1">Entwurf</text><text text-anchor="end" transform="translate(-7,392.5)" font-family="sans-serif" font-size="10px" fill="#000" opacity="1">Formular</text><text text-anchor="end" transform="translate(-7,412.5)" font-family="sans-serif" font-size="10px" fill="#000" opacity="1">Prospekt</text><text text-anchor="end" transform="translate(-7,432.5)" font-family="sans-serif" font-size="10px" fill="#000" opacity="1">Buchrücken</text><text text-anchor="end" transform="translate(-7,452.5)" font-family="sans-serif" font-size="10px" fill="#000" opacity="1">Klischee</text><text text-anchor="end" transform="translate(-7,472.5)" font-family="sans-serif" font-size="10px" fill="#000" opacity="1">Werbeplakat</text><text text-anchor="end" transform="translate(-7,492.5)" font-family="sans-serif" font-size="10px" fill="#000" opacity="1">Empfehlungskarte</text><text text-anchor="end" transform="translate(-7,512.5)" font-family="sans-serif" font-size="10px" fill="#000" opacity="1">Handzettel</text><text text-anchor="end" transform="translate(-7,532.5)" font-family="sans-serif" font-size="10px" fill="#000" opacity="1">Neujahrswunsch</text><text text-anchor="end" transform="translate(-7,552.5)" font-family="sans-serif" font-size="10px" fill="#000" opacity="1">Skizze</text><text text-anchor="end" transform="translate(-7,572.5)" font-family="sans-serif" font-size="10px" fill="#000" opacity="1">Akzidenz</text><text text-anchor="end" transform="translate(-7,592.5)" font-family="sans-serif" font-size="10px" fill="#000" opacity="1">Briefkopf</text><text text-anchor="end" transform="translate(-7,612.5)" font-family="sans-serif" font-size="10px" fill="#000" opacity="1">Filmplakat</text><text text-anchor="end" transform="translate(-7,632.5)" font-family="sans-serif" font-size="10px" fill="#000" opacity="1">Schriftprobe</text><text text-anchor="end" transform="translate(-7,652.5)" font-family="sans-serif" font-size="10px" fill="#000" opacity="1">Seite</text><text text-anchor="end" transform="translate(-7,672.5)" font-family="sans-serif" font-size="10px" fill="#000" opacity="1">Notiz</text></g><g class="mark-text role-axis-title" pointer-events="none"><text text-anchor="middle" transform="translate(-92.69921875,340) rotate(-90) translate(0,-2)" font-family="sans-serif" font-size="11px" font-weight="bold" fill="#000" opacity="1">Gattung</text></g></g><path class="foreground" aria-hidden="true" d="" pointer-events="none" display="none"/></g></g><g class="mark-rect role-mark layer_0_marks" role="graphics-symbol" aria-roledescription="rect mark container"><path d="M0,561h28.333333333333332v18h-28.333333333333332Z" fill="#4c78a8"/><path d="M0,161h81.66666666666667v18h-81.66666666666667Z" fill="#4c78a8"/><path d="M0,81h191.66666666666669v18h-191.66666666666669Z" fill="#4c78a8"/><path d="M0,581h28.333333333333332v18h-28.333333333333332Z" fill="#4c78a8"/><path d="M0,221h58.333333333333336v18h-58.333333333333336Z" fill="#4c78a8"/><path d="M0,321h48.333333333333336v18h-48.333333333333336Z" fill="#4c78a8"/><path d="M0,41h238.33333333333334v18h-238.33333333333334Z" fill="#4c78a8"/><path d="M0,421h38.333333333333336v18h-38.333333333333336Z" fill="#4c78a8"/><path d="M0,121h110.00000000000001v18h-110.00000000000001Z" fill="#4c78a8"/><path d="M0,261h56.666666666666664v18h-56.666666666666664Z" fill="#4c78a8"/><path d="M0,481h35v18h-35Z" fill="#4c78a8"/><path d="M0,361h46.666666666666664v18h-46.666666666666664Z" fill="#4c78a8"/><path d="M0,201h63.33333333333333v18h-63.33333333333333Z" fill="#4c78a8"/><path d="M0,601h28.333333333333332v18h-28.333333333333332Z" fill="#4c78a8"/><path d="M0,141h98.33333333333333v18h-98.33333333333333Z" fill="#4c78a8"/><path d="M0,381h45v18h-45Z" fill="#4c78a8"/><path d="M0,341h48.333333333333336v18h-48.333333333333336Z" fill="#4c78a8"/><path d="M0,301h50v18h-50Z" fill="#4c78a8"/><path d="M0,501h35v18h-35Z" fill="#4c78a8"/><path d="M0,101h176.66666666666666v18h-176.66666666666666Z" fill="#4c78a8"/><path d="M0,441h36.666666666666664v18h-36.666666666666664Z" fill="#4c78a8"/><path d="M0,521h33.33333333333333v18h-33.33333333333333Z" fill="#4c78a8"/><path d="M0,661h25v18h-25Z" fill="#4c78a8"/><path d="M0,181h73.33333333333333v18h-73.33333333333333Z" fill="#4c78a8"/><path d="M0,401h40v18h-40Z" fill="#4c78a8"/><path d="M0,621h28.333333333333332v18h-28.333333333333332Z" fill="#4c78a8"/><path d="M0,61h238.33333333333334v18h-238.33333333333334Z" fill="#4c78a8"/><path d="M0,641h26.666666666666668v18h-26.666666666666668Z" fill="#4c78a8"/><path d="M0,541h33.33333333333333v18h-33.33333333333333Z" fill="#4c78a8"/><path d="M0,1h378.3333333333333v18h-378.3333333333333Z" fill="#4c78a8"/><path d="M0,281h55.00000000000001v18h-55.00000000000001Z" fill="#4c78a8"/><path d="M0,21h253.33333333333331v18h-253.33333333333331Z" fill="#4c78a8"/><path d="M0,241h58.333333333333336v18h-58.333333333333336Z" fill="#4c78a8"/><path d="M0,461h36.666666666666664v18h-36.666666666666664Z" fill="#4c78a8"/></g><g class="mark-text role-mark layer_1_marks" role="graphics-object" aria-roledescription="text mark container"><text text-anchor="start" transform="translate(31.333333333333332,573)" font-family="sans-serif" font-size="11px" fill="black">17</text><text text-anchor="start" transform="translate(84.66666666666667,173)" font-family="sans-serif" font-size="11px" fill="black">49</text><text text-anchor="start" transform="translate(194.66666666666669,93)" font-family="sans-serif" font-size="11px" fill="black">115</text><text text-anchor="start" transform="translate(31.333333333333332,593)" font-family="sans-serif" font-size="11px" fill="black">17</text><text text-anchor="start" transform="translate(61.333333333333336,233)" font-family="sans-serif" font-size="11px" fill="black">35</text><text text-anchor="start" transform="translate(51.333333333333336,333)" font-family="sans-serif" font-size="11px" fill="black">29</text><text text-anchor="start" transform="translate(241.33333333333334,53)" font-family="sans-serif" font-size="11px" fill="black">143</text><text text-anchor="start" transform="translate(41.333333333333336,433)" font-family="sans-serif" font-size="11px" fill="black">23</text><text text-anchor="start" transform="translate(113.00000000000001,133)" font-family="sans-serif" font-size="11px" fill="black">66</text><text text-anchor="start" transform="translate(59.666666666666664,273)" font-family="sans-serif" font-size="11px" fill="black">34</text><text text-anchor="start" transform="translate(38,493)" font-family="sans-serif" font-size="11px" fill="black">21</text><text text-anchor="start" transform="translate(49.666666666666664,373)" font-family="sans-serif" font-size="11px" fill="black">28</text><text text-anchor="start" transform="translate(66.33333333333333,213)" font-family="sans-serif" font-size="11px" fill="black">38</text><text text-anchor="start" transform="translate(31.333333333333332,613)" font-family="sans-serif" font-size="11px" fill="black">17</text><text text-anchor="start" transform="translate(101.33333333333333,153)" font-family="sans-serif" font-size="11px" fill="black">59</text><text text-anchor="start" transform="translate(48,393)" font-family="sans-serif" font-size="11px" fill="black">27</text><text text-anchor="start" transform="translate(51.333333333333336,353)" font-family="sans-serif" font-size="11px" fill="black">29</text><text text-anchor="start" transform="translate(53,313)" font-family="sans-serif" font-size="11px" fill="black">30</text><text text-anchor="start" transform="translate(38,513)" font-family="sans-serif" font-size="11px" fill="black">21</text><text text-anchor="start" transform="translate(179.66666666666666,113)" font-family="sans-serif" font-size="11px" fill="black">106</text><text text-anchor="start" transform="translate(39.666666666666664,453)" font-family="sans-serif" font-size="11px" fill="black">22</text><text text-anchor="start" transform="translate(36.33333333333333,533)" font-family="sans-serif" font-size="11px" fill="black">20</text><text text-anchor="start" transform="translate(28,673)" font-family="sans-serif" font-size="11px" fill="black">15</text><text text-anchor="start" transform="translate(76.33333333333333,193)" font-family="sans-serif" font-size="11px" fill="black">44</text><text text-anchor="start" transform="translate(43,413)" font-family="sans-serif" font-size="11px" fill="black">24</text><text text-anchor="start" transform="translate(31.333333333333332,633)" font-family="sans-serif" font-size="11px" fill="black">17</text><text text-anchor="start" transform="translate(241.33333333333334,73)" font-family="sans-serif" font-size="11px" fill="black">143</text><text text-anchor="start" transform="translate(29.666666666666668,653)" font-family="sans-serif" font-size="11px" fill="black">16</text><text text-anchor="start" transform="translate(36.33333333333333,553)" font-family="sans-serif" font-size="11px" fill="black">20</text><text text-anchor="start" transform="translate(381.3333333333333,13)" font-family="sans-serif" font-size="11px" fill="black">227</text><text text-anchor="start" transform="translate(58.00000000000001,293)" font-family="sans-serif" font-size="11px" fill="black">33</text><text text-anchor="start" transform="translate(256.3333333333333,33)" font-family="sans-serif" font-size="11px" fill="black">152</text><text text-anchor="start" transform="translate(61.333333333333336,253)" font-family="sans-serif" font-size="11px" fill="black">35</text><text text-anchor="start" transform="translate(39.666666666666664,473)" font-family="sans-serif" font-size="11px" fill="black">22</text></g></g><path class="foreground" aria-hidden="true" d="" display="none"/></g></g></g></svg>